<?xml version="1.0" encoding="UTF-8" standalone="no"?>
<!-- Created with Inkscape (http://www.inkscape.org/) -->

<svg
   xmlns:dc="http://purl.org/dc/elements/1.1/"
   xmlns:cc="http://creativecommons.org/ns#"
   xmlns:rdf="http://www.w3.org/1999/02/22-rdf-syntax-ns#"
   xmlns:svg="http://www.w3.org/2000/svg"
   xmlns="http://www.w3.org/2000/svg"
   xmlns:sodipodi="http://sodipodi.sourceforge.net/DTD/sodipodi-0.dtd"
   xmlns:inkscape="http://www.inkscape.org/namespaces/inkscape"
   width="437px"
   height="51px"
   viewBox="0 0 437 51"
   version="1.1"
   id="SVGRoot"
   inkscape:version="0.92.3 (2405546, 2018-03-11)"
   sodipodi:docname="bps_logo.svg">
  <sodipodi:namedview
     id="base"
     pagecolor="#ffffff"
     bordercolor="#666666"
     borderopacity="1.0"
     inkscape:pageopacity="1.0"
     inkscape:pageshadow="0"
     inkscape:zoom="1.1716247"
     inkscape:cx="218.5"
     inkscape:cy="25.5"
     inkscape:document-units="px"
     inkscape:current-layer="layer1"
     showgrid="false"
     inkscape:window-width="1920"
     inkscape:window-height="1056"
     inkscape:window-x="1920"
     inkscape:window-y="0"
     inkscape:window-maximized="1" />
  <defs
     id="defs2723" />
  <metadata
     id="metadata2726">
    <rdf:RDF>
      <cc:Work
         rdf:about="">
        <dc:format>image/svg+xml</dc:format>
        <dc:type
           rdf:resource="http://purl.org/dc/dcmitype/StillImage" />
        <dc:title></dc:title>
      </cc:Work>
    </rdf:RDF>
  </metadata>
  <g
     id="layer1"
     inkscape:groupmode="layer"
     inkscape:label="Layer 1">
    <g
       id="g1101"
       transform="matrix(2.6702213,0,0,2.6702213,-103.39483,-80.425017)"
       inkscape:export-xdpi="68"
       inkscape:export-ydpi="68">
      <text
         id="text825"
         y="48.480652"
         x="51.404758"
         style="font-style:normal;font-weight:normal;font-size:10.58333302px;line-height:1.25;font-family:sans-serif;letter-spacing:0px;word-spacing:0px;fill:#000000;fill-opacity:1;stroke:none;stroke-width:0.26458332"
         xml:space="preserve"><tspan
           style="fill:#f26419;fill-opacity:1;stroke-width:0.26458332"
           y="48.480652"
           x="51.404758"
           id="tspan823"
           sodipodi:role="line">lockchain Password Services</tspan></text>
      <g
         transform="matrix(0.83425918,0,0,0.83425918,10.554857,6.6962951)"
         id="g1082">
        <g
           id="g1066">
          <path
             sodipodi:open="true"
             d="m 38.089014,40.0596 a 2.1482072,1.9986982 0 0 1 -1.904146,2.147759 2.1482072,1.9986982 0 0 1 -2.364132,-1.706838 2.1482072,1.9986982 0 0 1 1.763254,-2.249479 2.1482072,1.9986982 0 0 1 2.469214,1.572778"
             sodipodi:end="6.0832022"
             sodipodi:start="6.2024115"
             sodipodi:ry="1.9986982"
             sodipodi:rx="2.1482072"
             sodipodi:cy="40.220867"
             sodipodi:cx="35.947811"
             sodipodi:type="arc"
             id="path829-3-6"
             style="opacity:1;fill:#f26419;fill-opacity:1;stroke:#000000;stroke-width:0.14356425;stroke-miterlimit:4;stroke-dasharray:none;stroke-opacity:0.01507538" />
          <path
             sodipodi:open="true"
             d="m 38.089014,49.347217 a 2.1482072,1.9986982 0 0 1 -1.904146,2.147758 2.1482072,1.9986982 0 0 1 -2.364132,-1.706838 2.1482072,1.9986982 0 0 1 1.763254,-2.249478 2.1482072,1.9986982 0 0 1 2.469214,1.572778"
             sodipodi:end="6.0832022"
             sodipodi:start="6.2024115"
             sodipodi:ry="1.9986982"
             sodipodi:rx="2.1482072"
             sodipodi:cy="49.508484"
             sodipodi:cx="35.947811"
             sodipodi:type="arc"
             id="path829-3-2"
             style="opacity:1;fill:#f26419;fill-opacity:1;stroke:#000000;stroke-width:0.14356425;stroke-miterlimit:4;stroke-dasharray:none;stroke-opacity:0.01507538" />
          <path
             sodipodi:open="true"
             d="m 48.779795,31.239705 a 2.1482072,1.9986982 0 0 1 -1.904147,2.147759 2.1482072,1.9986982 0 0 1 -2.364132,-1.706838 2.1482072,1.9986982 0 0 1 1.763254,-2.249479 2.1482072,1.9986982 0 0 1 2.469215,1.572778"
             sodipodi:end="6.0832022"
             sodipodi:start="6.2024115"
             sodipodi:ry="1.9986982"
             sodipodi:rx="2.1482072"
             sodipodi:cy="31.400972"
             sodipodi:cx="46.638592"
             sodipodi:type="arc"
             id="path829-3-9"
             style="opacity:1;fill:#f26419;fill-opacity:1;stroke:#000000;stroke-width:0.14356425;stroke-miterlimit:4;stroke-dasharray:none;stroke-opacity:0.01507538" />
          <path
             sodipodi:open="true"
             d="m 48.913428,47.877231 a 2.1482072,1.9986982 0 0 1 -1.904147,2.147758 2.1482072,1.9986982 0 0 1 -2.364132,-1.706837 2.1482072,1.9986982 0 0 1 1.763254,-2.249479 2.1482072,1.9986982 0 0 1 2.469215,1.572778"
             sodipodi:end="6.0832022"
             sodipodi:start="6.2024115"
             sodipodi:ry="1.9986982"
             sodipodi:rx="2.1482072"
             sodipodi:cy="48.038498"
             sodipodi:cx="46.772224"
             sodipodi:type="arc"
             id="path829-3-1"
             style="opacity:1;fill:#f26419;fill-opacity:1;stroke:#000000;stroke-width:0.14356425;stroke-miterlimit:4;stroke-dasharray:none;stroke-opacity:0.01507538" />
          <path
             sodipodi:open="true"
             d="m 47.042544,39.992782 a 2.1482072,1.9986982 0 0 1 -1.904147,2.147758 2.1482072,1.9986982 0 0 1 -2.364132,-1.706838 2.1482072,1.9986982 0 0 1 1.763254,-2.249478 2.1482072,1.9986982 0 0 1 2.469215,1.572778"
             sodipodi:end="6.0832022"
             sodipodi:start="6.2024115"
             sodipodi:ry="1.9986982"
             sodipodi:rx="2.1482072"
             sodipodi:cy="40.154049"
             sodipodi:cx="44.90134"
             sodipodi:type="arc"
             id="path829-3-27"
             style="opacity:1;fill:#f26419;fill-opacity:1;stroke:#000000;stroke-width:0.14356425;stroke-miterlimit:4;stroke-dasharray:none;stroke-opacity:0.01507538" />
          <path
             inkscape:connector-curvature="0"
             id="path957"
             d="m 35.907739,32.629276 v 5.598774 9.35491 l 2.181275,1.764257 4.244319,-0.01612 c 0,0 2.598586,-0.09449 3.09468,-1.252046 0.496094,-1.157552 0.73233,-1.937128 0.73233,-1.937128 l -0.874072,-4.039618 0.02363,-3.850635 1.181177,-4.84282 c 0,0 -0.73233,-1.511903 -0.944941,-1.606399 -0.212611,-0.09449 -1.441035,-1.22842 -2.669458,-1.41741 -1.228424,-0.188986 -4.878229,-0.189023 -4.878229,-0.189023 z"
             style="fill:none;stroke:#241e4e;stroke-width:0.86500001;stroke-linecap:butt;stroke-linejoin:miter;stroke-miterlimit:4;stroke-dasharray:none;stroke-opacity:1" />
          <path
             inkscape:connector-curvature="0"
             id="path959"
             d="m 36.002232,40.259672 h 8.693452 l 0.04725,-0.04725 z"
             style="fill:none;stroke:#241e4e;stroke-width:0.86500001;stroke-linecap:butt;stroke-linejoin:miter;stroke-miterlimit:4;stroke-dasharray:none;stroke-opacity:1" />
          <path
             sodipodi:open="true"
             d="m 38.034258,30.431798 a 2.1482072,1.9986982 0 0 1 -1.904146,2.147759 2.1482072,1.9986982 0 0 1 -2.364133,-1.706838 2.1482072,1.9986982 0 0 1 1.763254,-2.249479 2.1482072,1.9986982 0 0 1 2.469215,1.572778"
             sodipodi:end="6.0832022"
             sodipodi:start="6.2024115"
             sodipodi:ry="1.9986982"
             sodipodi:rx="2.1482072"
             sodipodi:cy="30.593065"
             sodipodi:cx="35.893055"
             sodipodi:type="arc"
             id="path829-3-0"
             style="opacity:1;fill:#f26419;fill-opacity:1;stroke:#000000;stroke-width:0.14356425;stroke-miterlimit:4;stroke-dasharray:none;stroke-opacity:0.01507538" />
          <path
             sodipodi:open="true"
             d="m 38.089014,40.0596 a 2.1482072,1.9986982 0 0 1 -1.904146,2.147759 2.1482072,1.9986982 0 0 1 -2.364132,-1.706838 2.1482072,1.9986982 0 0 1 1.763254,-2.249479 2.1482072,1.9986982 0 0 1 2.469214,1.572778"
             sodipodi:end="6.0832022"
             sodipodi:start="6.2024115"
             sodipodi:ry="1.9986982"
             sodipodi:rx="2.1482072"
             sodipodi:cy="40.220867"
             sodipodi:cx="35.947811"
             sodipodi:type="arc"
             id="path829-3-93"
             style="opacity:1;fill:#f26419;fill-opacity:1;stroke:#000000;stroke-width:0.14356425;stroke-miterlimit:4;stroke-dasharray:none;stroke-opacity:0.01507538" />
          <path
             sodipodi:open="true"
             d="m 38.089014,49.347217 a 2.1482072,1.9986982 0 0 1 -1.904146,2.147758 2.1482072,1.9986982 0 0 1 -2.364132,-1.706838 2.1482072,1.9986982 0 0 1 1.763254,-2.249478 2.1482072,1.9986982 0 0 1 2.469214,1.572778"
             sodipodi:end="6.0832022"
             sodipodi:start="6.2024115"
             sodipodi:ry="1.9986982"
             sodipodi:rx="2.1482072"
             sodipodi:cy="49.508484"
             sodipodi:cx="35.947811"
             sodipodi:type="arc"
             id="path829-3-60"
             style="opacity:1;fill:#f26419;fill-opacity:1;stroke:#000000;stroke-width:0.14356425;stroke-miterlimit:4;stroke-dasharray:none;stroke-opacity:0.01507538" />
          <path
             sodipodi:open="true"
             d="m 48.913428,47.877231 a 2.1482072,1.9986982 0 0 1 -1.904147,2.147758 2.1482072,1.9986982 0 0 1 -2.364132,-1.706837 2.1482072,1.9986982 0 0 1 1.763254,-2.249479 2.1482072,1.9986982 0 0 1 2.469215,1.572778"
             sodipodi:end="6.0832022"
             sodipodi:start="6.2024115"
             sodipodi:ry="1.9986982"
             sodipodi:rx="2.1482072"
             sodipodi:cy="48.038498"
             sodipodi:cx="46.772224"
             sodipodi:type="arc"
             id="path829-3-62"
             style="opacity:1;fill:#f26419;fill-opacity:1;stroke:#000000;stroke-width:0.14356425;stroke-miterlimit:4;stroke-dasharray:none;stroke-opacity:0.01507538" />
          <path
             sodipodi:open="true"
             d="m 47.042544,39.992782 a 2.1482072,1.9986982 0 0 1 -1.904147,2.147758 2.1482072,1.9986982 0 0 1 -2.364132,-1.706838 2.1482072,1.9986982 0 0 1 1.763254,-2.249478 2.1482072,1.9986982 0 0 1 2.469215,1.572778"
             sodipodi:end="6.0832022"
             sodipodi:start="6.2024115"
             sodipodi:ry="1.9986982"
             sodipodi:rx="2.1482072"
             sodipodi:cy="40.154049"
             sodipodi:cx="44.90134"
             sodipodi:type="arc"
             id="path829-3-61"
             style="opacity:1;fill:#f26419;fill-opacity:1;stroke:#000000;stroke-width:0.14356425;stroke-miterlimit:4;stroke-dasharray:none;stroke-opacity:0.01507538" />
        </g>
        <path
           style="opacity:1;fill:#f26419;fill-opacity:1;stroke:#000000;stroke-width:0.14356425;stroke-miterlimit:4;stroke-dasharray:none;stroke-opacity:0.01507538"
           id="path829-3-8"
           sodipodi:type="arc"
           sodipodi:cx="46.638592"
           sodipodi:cy="31.400972"
           sodipodi:rx="2.1482072"
           sodipodi:ry="1.9986982"
           sodipodi:start="6.2024115"
           sodipodi:end="6.0832022"
           d="m 48.779795,31.239705 a 2.1482072,1.9986982 0 0 1 -1.904147,2.147759 2.1482072,1.9986982 0 0 1 -2.364132,-1.706838 2.1482072,1.9986982 0 0 1 1.763254,-2.249479 2.1482072,1.9986982 0 0 1 2.469215,1.572778"
           sodipodi:open="true" />
      </g>
    </g>
  </g>
</svg>
